# Blender v3.0.1 OBJ File: ''
# www.blender.org
mtllib bin.mtl
o Cylinder
v 0.000000 -1.059599 -0.570416
v 0.000000 1.000000 -1.000000
v 0.111283 -1.059599 -0.559456
v 0.195090 1.000000 -0.980785
v 0.218289 -1.059599 -0.526996
v 0.382683 1.000000 -0.923880
v 0.316906 -1.059599 -0.474284
v 0.555570 1.000000 -0.831470
v 0.403345 -1.059599 -0.403345
v 0.707107 1.000000 -0.707107
v 0.474284 -1.059599 -0.316906
v 0.831470 1.000000 -0.555570
v 0.526996 -1.059599 -0.218289
v 0.923880 1.000000 -0.382683
v 0.559456 -1.059599 -0.111283
v 0.980785 1.000000 -0.195090
v 0.570416 -1.059599 0.000000
v 1.000000 1.000000 0.000000
v 0.559456 -1.059599 0.111283
v 0.980785 1.000000 0.195090
v 0.526996 -1.059599 0.218289
v 0.923880 1.000000 0.382683
v 0.474284 -1.059599 0.316906
v 0.831470 1.000000 0.555570
v 0.403345 -1.059599 0.403345
v 0.707107 1.000000 0.707107
v 0.316906 -1.059599 0.474284
v 0.555570 1.000000 0.831470
v 0.218289 -1.059599 0.526996
v 0.382683 1.000000 0.923880
v 0.111283 -1.059599 0.559456
v 0.195090 1.000000 0.980785
v -0.000000 -1.059599 0.570416
v -0.000000 1.000000 1.000000
v -0.111283 -1.059599 0.559456
v -0.195090 1.000000 0.980785
v -0.218289 -1.059599 0.526996
v -0.382683 1.000000 0.923880
v -0.316906 -1.059599 0.474284
v -0.555570 1.000000 0.831470
v -0.403345 -1.059599 0.403345
v -0.707107 1.000000 0.707107
v -0.474284 -1.059599 0.316906
v -0.831469 1.000000 0.555570
v -0.526996 -1.059599 0.218289
v -0.923880 1.000000 0.382684
v -0.559456 -1.059599 0.111283
v -0.980785 1.000000 0.195090
v -0.570416 -1.059599 0.000000
v -1.000000 1.000000 -0.000000
v -0.559456 -1.059599 -0.111283
v -0.980785 1.000000 -0.195090
v -0.526996 -1.059599 -0.218289
v -0.923879 1.000000 -0.382684
v -0.474284 -1.059599 -0.316906
v -0.831470 1.000000 -0.555570
v -0.403345 -1.059599 -0.403345
v -0.707107 1.000000 -0.707107
v -0.316906 -1.059599 -0.474284
v -0.555570 1.000000 -0.831470
v -0.218289 -1.059599 -0.526996
v -0.382683 1.000000 -0.923880
v -0.111283 -1.059599 -0.559456
v -0.195090 1.000000 -0.980785
v 0.000000 -1.217874 -0.737685
v 0.000000 1.176234 -1.340154
v 0.143915 -1.217874 -0.723510
v 0.261451 1.176234 -1.314404
v 0.282300 -1.217874 -0.681532
v 0.512855 1.176234 -1.238141
v 0.409836 -1.217874 -0.613362
v 0.744550 1.176234 -1.114298
v 0.521622 -1.217874 -0.521622
v 0.947632 1.176234 -0.947632
v 0.613362 -1.217874 -0.409836
v 1.114298 1.176234 -0.744550
v 0.681532 -1.217874 -0.282300
v 1.238141 1.176234 -0.512855
v 0.723510 -1.217874 -0.143915
v 1.314404 1.176234 -0.261451
v 0.737685 -1.217874 0.000000
v 1.340154 1.176234 0.000000
v 0.723510 -1.217874 0.143915
v 1.314404 1.176234 0.261451
v 0.681532 -1.217874 0.282300
v 1.238141 1.176234 0.512855
v 0.613362 -1.217874 0.409836
v 1.114298 1.176234 0.744550
v 0.521622 -1.217874 0.521622
v 0.947632 1.176234 0.947632
v 0.409836 -1.217874 0.613362
v 0.744550 1.176234 1.114298
v 0.282300 -1.217874 0.681532
v 0.512855 1.176234 1.238141
v 0.143915 -1.217874 0.723510
v 0.261451 1.176234 1.314404
v -0.000000 -1.217874 0.737685
v -0.000000 1.176234 1.340154
v -0.143915 -1.217874 0.723510
v -0.261451 1.176234 1.314404
v -0.282300 -1.217874 0.681532
v -0.512855 1.176234 1.238141
v -0.409836 -1.217874 0.613362
v -0.744550 1.176234 1.114298
v -0.521622 -1.217874 0.521622
v -0.947632 1.176234 0.947632
v -0.613362 -1.217874 0.409836
v -1.114297 1.176234 0.744550
v -0.681532 -1.217874 0.282300
v -1.238141 1.176234 0.512855
v -0.723510 -1.217874 0.143915
v -1.314404 1.176234 0.261451
v -0.737685 -1.217874 0.000000
v -1.340154 1.176234 -0.000000
v -0.723510 -1.217874 -0.143915
v -1.314404 1.176234 -0.261451
v -0.681532 -1.217874 -0.282300
v -1.238141 1.176234 -0.512855
v -0.613362 -1.217874 -0.409835
v -1.114298 1.176234 -0.744550
v -0.521622 -1.217874 -0.521622
v -0.947632 1.176234 -0.947632
v -0.409836 -1.217874 -0.613362
v -0.744550 1.176234 -1.114298
v -0.282300 -1.217874 -0.681532
v -0.512855 1.176234 -1.238141
v -0.143915 -1.217874 -0.723510
v -0.261451 1.176234 -1.314404
vt 1.000000 0.500000
vt 0.968750 0.500000
vt 0.968750 1.000000
vt 1.000000 1.000000
vt 0.937500 0.500000
vt 0.937500 1.000000
vt 0.906250 0.500000
vt 0.906250 1.000000
vt 0.875000 0.500000
vt 0.875000 1.000000
vt 0.843750 0.500000
vt 0.843750 1.000000
vt 0.812500 0.500000
vt 0.812500 1.000000
vt 0.781250 0.500000
vt 0.781250 1.000000
vt 0.750000 0.500000
vt 0.750000 1.000000
vt 0.718750 0.500000
vt 0.718750 1.000000
vt 0.687500 0.500000
vt 0.687500 1.000000
vt 0.656250 0.500000
vt 0.656250 1.000000
vt 0.625000 0.500000
vt 0.625000 1.000000
vt 0.593750 0.500000
vt 0.593750 1.000000
vt 0.562500 0.500000
vt 0.562500 1.000000
vt 0.531250 0.500000
vt 0.531250 1.000000
vt 0.500000 0.500000
vt 0.500000 1.000000
vt 0.468750 0.500000
vt 0.468750 1.000000
vt 0.437500 0.500000
vt 0.437500 1.000000
vt 0.406250 0.500000
vt 0.406250 1.000000
vt 0.375000 0.500000
vt 0.375000 1.000000
vt 0.343750 0.500000
vt 0.343750 1.000000
vt 0.312500 0.500000
vt 0.312500 1.000000
vt 0.281250 0.500000
vt 0.281250 1.000000
vt 0.250000 0.500000
vt 0.250000 1.000000
vt 0.218750 0.500000
vt 0.218750 1.000000
vt 0.187500 0.500000
vt 0.187500 1.000000
vt 0.156250 0.500000
vt 0.156250 1.000000
vt 0.125000 0.500000
vt 0.125000 1.000000
vt 0.093750 0.500000
vt 0.093750 1.000000
vt 0.062500 0.500000
vt 0.062500 1.000000
vt 0.031250 0.500000
vt 0.031250 1.000000
vt 0.000000 0.500000
vt 0.000000 1.000000
vt 0.750000 0.490000
vt 0.703178 0.485388
vt 0.658156 0.471731
vt 0.616663 0.449553
vt 0.580294 0.419706
vt 0.550447 0.383337
vt 0.528269 0.341844
vt 0.514612 0.296822
vt 0.510000 0.250000
vt 0.514612 0.203178
vt 0.528269 0.158156
vt 0.550447 0.116663
vt 0.580294 0.080294
vt 0.616663 0.050447
vt 0.658156 0.028269
vt 0.703178 0.014612
vt 0.750000 0.010000
vt 0.796822 0.014612
vt 0.841844 0.028269
vt 0.883337 0.050447
vt 0.919706 0.080294
vt 0.949553 0.116663
vt 0.971731 0.158156
vt 0.985388 0.203178
vt 0.990000 0.250000
vt 0.985388 0.296822
vt 0.971731 0.341844
vt 0.949553 0.383337
vt 0.919706 0.419706
vt 0.883337 0.449553
vt 0.841844 0.471731
vt 0.796822 0.485388
vt 1.000000 0.500000
vt 1.000000 1.000000
vt 0.968750 1.000000
vt 0.968750 0.500000
vt 0.937500 1.000000
vt 0.937500 0.500000
vt 0.906250 1.000000
vt 0.906250 0.500000
vt 0.875000 1.000000
vt 0.875000 0.500000
vt 0.843750 1.000000
vt 0.843750 0.500000
vt 0.812500 1.000000
vt 0.812500 0.500000
vt 0.781250 1.000000
vt 0.781250 0.500000
vt 0.750000 1.000000
vt 0.750000 0.500000
vt 0.718750 1.000000
vt 0.718750 0.500000
vt 0.687500 1.000000
vt 0.687500 0.500000
vt 0.656250 1.000000
vt 0.656250 0.500000
vt 0.625000 1.000000
vt 0.625000 0.500000
vt 0.593750 1.000000
vt 0.593750 0.500000
vt 0.562500 1.000000
vt 0.562500 0.500000
vt 0.531250 1.000000
vt 0.531250 0.500000
vt 0.500000 1.000000
vt 0.500000 0.500000
vt 0.468750 1.000000
vt 0.468750 0.500000
vt 0.437500 1.000000
vt 0.437500 0.500000
vt 0.406250 1.000000
vt 0.406250 0.500000
vt 0.375000 1.000000
vt 0.375000 0.500000
vt 0.343750 1.000000
vt 0.343750 0.500000
vt 0.312500 1.000000
vt 0.312500 0.500000
vt 0.281250 1.000000
vt 0.281250 0.500000
vt 0.250000 1.000000
vt 0.250000 0.500000
vt 0.218750 1.000000
vt 0.218750 0.500000
vt 0.187500 1.000000
vt 0.187500 0.500000
vt 0.156250 1.000000
vt 0.156250 0.500000
vt 0.125000 1.000000
vt 0.125000 0.500000
vt 0.093750 1.000000
vt 0.093750 0.500000
vt 0.062500 1.000000
vt 0.062500 0.500000
vt 0.031250 1.000000
vt 0.031250 0.500000
vt 0.000000 1.000000
vt 0.000000 0.500000
vt 0.750000 0.490000
vt 0.796822 0.485388
vt 0.841844 0.471731
vt 0.883337 0.449553
vt 0.919706 0.419706
vt 0.949553 0.383337
vt 0.971731 0.341844
vt 0.985388 0.296822
vt 0.990000 0.250000
vt 0.985388 0.203178
vt 0.971731 0.158156
vt 0.949553 0.116663
vt 0.919706 0.080294
vt 0.883337 0.050447
vt 0.841844 0.028269
vt 0.796822 0.014612
vt 0.750000 0.010000
vt 0.703178 0.014612
vt 0.658156 0.028269
vt 0.616663 0.050447
vt 0.580294 0.080294
vt 0.550447 0.116663
vt 0.528269 0.158156
vt 0.514612 0.203178
vt 0.510000 0.250000
vt 0.514612 0.296822
vt 0.528269 0.341844
vt 0.550447 0.383337
vt 0.580294 0.419706
vt 0.616663 0.449553
vt 0.658156 0.471731
vt 0.703178 0.485388
vn -0.0960 0.2032 0.9744
vn -0.2842 0.2032 0.9370
vn -0.4616 0.2032 0.8635
vn -0.6212 0.2032 0.7569
vn -0.7569 0.2032 0.6212
vn -0.8635 0.2032 0.4616
vn -0.9370 0.2032 0.2842
vn -0.9744 0.2032 0.0960
vn -0.9744 0.2032 -0.0960
vn -0.9370 0.2032 -0.2842
vn -0.8635 0.2032 -0.4616
vn -0.7569 0.2032 -0.6212
vn -0.6212 0.2032 -0.7569
vn -0.4616 0.2032 -0.8635
vn -0.2842 0.2032 -0.9370
vn -0.0960 0.2032 -0.9744
vn 0.0960 0.2032 -0.9744
vn 0.2842 0.2032 -0.9370
vn 0.4616 0.2032 -0.8635
vn 0.6212 0.2032 -0.7569
vn 0.7569 0.2032 -0.6212
vn 0.8635 0.2032 -0.4616
vn 0.9370 0.2032 -0.2842
vn 0.9744 0.2032 -0.0960
vn 0.9744 0.2032 0.0960
vn 0.9370 0.2032 0.2842
vn 0.8635 0.2032 0.4616
vn 0.7569 0.2032 0.6212
vn 0.6212 0.2032 0.7569
vn 0.4616 0.2032 0.8635
vn 0.2842 0.2032 0.9370
vn 0.0960 0.2032 0.9744
vn 0.0000 1.0000 -0.0000
vn 0.0951 -0.2429 -0.9654
vn 0.2816 -0.2429 -0.9283
vn 0.4573 -0.2429 -0.8555
vn 0.6154 -0.2429 -0.7499
vn 0.7499 -0.2429 -0.6154
vn 0.8555 -0.2429 -0.4573
vn 0.9283 -0.2429 -0.2816
vn 0.9654 -0.2429 -0.0951
vn 0.9654 -0.2429 0.0951
vn 0.9283 -0.2429 0.2816
vn 0.8555 -0.2429 0.4573
vn 0.7499 -0.2429 0.6154
vn 0.6154 -0.2429 0.7499
vn 0.4573 -0.2429 0.8555
vn 0.2816 -0.2429 0.9283
vn 0.0951 -0.2429 0.9654
vn -0.0951 -0.2429 0.9654
vn -0.2816 -0.2429 0.9283
vn -0.4573 -0.2429 0.8555
vn -0.6154 -0.2429 0.7499
vn -0.7499 -0.2429 0.6154
vn -0.8555 -0.2429 0.4573
vn -0.9283 -0.2429 0.2816
vn -0.9654 -0.2429 0.0951
vn -0.9654 -0.2429 -0.0951
vn -0.9283 -0.2429 -0.2816
vn -0.8555 -0.2429 -0.4573
vn -0.7499 -0.2429 -0.6154
vn -0.6154 -0.2429 -0.7499
vn -0.4573 -0.2429 -0.8555
vn -0.2816 -0.2429 -0.9283
vn -0.0951 -0.2429 -0.9654
vn 0.0000 -1.0000 -0.0000
vn -0.2929 0.8870 -0.3570
vn 0.4072 0.8870 -0.2177
vn 0.1340 0.8870 0.4419
vn -0.4596 0.8870 -0.0453
vn 0.1340 0.8870 -0.4419
vn 0.4072 0.8870 0.2177
vn -0.3570 0.8870 0.2929
vn -0.2177 0.8870 -0.4072
vn 0.4419 0.8870 -0.1340
vn -0.0453 0.8870 0.4596
vn 0.0453 0.8870 0.4596
vn -0.4419 0.8870 -0.1340
vn 0.2177 0.8870 -0.4072
vn 0.3570 0.8870 0.2929
vn -0.4072 0.8870 0.2177
vn -0.1340 0.8870 -0.4419
vn 0.4596 0.8870 -0.0453
vn -0.1340 0.8870 0.4419
vn -0.4072 0.8870 -0.2177
vn 0.2929 0.8870 -0.3570
vn 0.2929 0.8870 0.3570
vn -0.4419 0.8870 0.1340
vn -0.0453 0.8870 -0.4596
vn 0.4596 0.8870 0.0453
vn -0.2177 0.8870 0.4072
vn -0.3570 0.8870 -0.2929
vn 0.3570 0.8870 -0.2929
vn 0.2177 0.8870 0.4073
vn -0.4596 0.8870 0.0453
vn 0.0453 0.8870 -0.4596
vn 0.4419 0.8870 0.1340
vn -0.2929 0.8870 0.3570
usemtl None
s off
f 1/1/1 3/2/1 4/3/1 2/4/1
f 3/2/2 5/5/2 6/6/2 4/3/2
f 5/5/3 7/7/3 8/8/3 6/6/3
f 7/7/4 9/9/4 10/10/4 8/8/4
f 9/9/5 11/11/5 12/12/5 10/10/5
f 11/11/6 13/13/6 14/14/6 12/12/6
f 13/13/7 15/15/7 16/16/7 14/14/7
f 15/15/8 17/17/8 18/18/8 16/16/8
f 17/17/9 19/19/9 20/20/9 18/18/9
f 19/19/10 21/21/10 22/22/10 20/20/10
f 21/21/11 23/23/11 24/24/11 22/22/11
f 23/23/12 25/25/12 26/26/12 24/24/12
f 25/25/13 27/27/13 28/28/13 26/26/13
f 27/27/14 29/29/14 30/30/14 28/28/14
f 29/29/15 31/31/15 32/32/15 30/30/15
f 31/31/16 33/33/16 34/34/16 32/32/16
f 33/33/17 35/35/17 36/36/17 34/34/17
f 35/35/18 37/37/18 38/38/18 36/36/18
f 37/37/19 39/39/19 40/40/19 38/38/19
f 39/39/20 41/41/20 42/42/20 40/40/20
f 41/41/21 43/43/21 44/44/21 42/42/21
f 43/43/22 45/45/22 46/46/22 44/44/22
f 45/45/23 47/47/23 48/48/23 46/46/23
f 47/47/24 49/49/24 50/50/24 48/48/24
f 49/49/25 51/51/25 52/52/25 50/50/25
f 51/51/26 53/53/26 54/54/26 52/52/26
f 53/53/27 55/55/27 56/56/27 54/54/27
f 55/55/28 57/57/28 58/58/28 56/56/28
f 57/57/29 59/59/29 60/60/29 58/58/29
f 59/59/30 61/61/30 62/62/30 60/60/30
f 61/61/31 63/63/31 64/64/31 62/62/31
f 63/63/32 1/65/32 2/66/32 64/64/32
f 1/67/33 63/68/33 61/69/33 59/70/33 57/71/33 55/72/33 53/73/33 51/74/33 49/75/33 47/76/33 45/77/33 43/78/33 41/79/33 39/80/33 37/81/33 35/82/33 33/83/33 31/84/33 29/85/33 27/86/33 25/87/33 23/88/33 21/89/33 19/90/33 17/91/33 15/92/33 13/93/33 11/94/33 9/95/33 7/96/33 5/97/33 3/98/33
f 65/99/34 66/100/34 68/101/34 67/102/34
f 67/102/35 68/101/35 70/103/35 69/104/35
f 69/104/36 70/103/36 72/105/36 71/106/36
f 71/106/37 72/105/37 74/107/37 73/108/37
f 73/108/38 74/107/38 76/109/38 75/110/38
f 75/110/39 76/109/39 78/111/39 77/112/39
f 77/112/40 78/111/40 80/113/40 79/114/40
f 79/114/41 80/113/41 82/115/41 81/116/41
f 81/116/42 82/115/42 84/117/42 83/118/42
f 83/118/43 84/117/43 86/119/43 85/120/43
f 85/120/44 86/119/44 88/121/44 87/122/44
f 87/122/45 88/121/45 90/123/45 89/124/45
f 89/124/46 90/123/46 92/125/46 91/126/46
f 91/126/47 92/125/47 94/127/47 93/128/47
f 93/128/48 94/127/48 96/129/48 95/130/48
f 95/130/49 96/129/49 98/131/49 97/132/49
f 97/132/50 98/131/50 100/133/50 99/134/50
f 99/134/51 100/133/51 102/135/51 101/136/51
f 101/136/52 102/135/52 104/137/52 103/138/52
f 103/138/53 104/137/53 106/139/53 105/140/53
f 105/140/54 106/139/54 108/141/54 107/142/54
f 107/142/55 108/141/55 110/143/55 109/144/55
f 109/144/56 110/143/56 112/145/56 111/146/56
f 111/146/57 112/145/57 114/147/57 113/148/57
f 113/148/58 114/147/58 116/149/58 115/150/58
f 115/150/59 116/149/59 118/151/59 117/152/59
f 117/152/60 118/151/60 120/153/60 119/154/60
f 119/154/61 120/153/61 122/155/61 121/156/61
f 121/156/62 122/155/62 124/157/62 123/158/62
f 123/158/63 124/157/63 126/159/63 125/160/63
f 125/160/64 126/159/64 128/161/64 127/162/64
f 127/162/65 128/161/65 66/163/65 65/164/65
f 65/165/66 67/166/66 69/167/66 71/168/66 73/169/66 75/170/66 77/171/66 79/172/66 81/173/66 83/174/66 85/175/66 87/176/66 89/177/66 91/178/66 93/179/66 95/180/66 97/181/66 99/182/66 101/183/66 103/184/66 105/185/66 107/186/66 109/187/66 111/188/66 113/189/66 115/190/66 117/191/66 119/192/66 121/193/66 123/194/66 125/195/66 127/196/66
f 26/26/67 28/28/67 92/125/67 90/123/67
f 44/44/68 46/46/68 110/143/68 108/141/68
f 62/62/69 64/64/69 128/161/69 126/159/69
f 18/18/70 20/20/70 84/117/70 82/115/70
f 36/36/71 38/38/71 102/135/71 100/133/71
f 54/54/72 56/56/72 120/153/72 118/151/72
f 10/10/73 12/12/73 76/109/73 74/107/73
f 28/28/74 30/30/74 94/127/74 92/125/74
f 46/46/75 48/48/75 112/145/75 110/143/75
f 2/4/76 4/3/76 68/101/76 66/100/76
f 64/64/77 2/66/77 66/163/77 128/161/77
f 20/20/78 22/22/78 86/119/78 84/117/78
f 38/38/79 40/40/79 104/137/79 102/135/79
f 56/56/80 58/58/80 122/155/80 120/153/80
f 12/12/81 14/14/81 78/111/81 76/109/81
f 30/30/82 32/32/82 96/129/82 94/127/82
f 48/48/83 50/50/83 114/147/83 112/145/83
f 4/3/84 6/6/84 70/103/84 68/101/84
f 22/22/85 24/24/85 88/121/85 86/119/85
f 40/40/86 42/42/86 106/139/86 104/137/86
f 58/58/87 60/60/87 124/157/87 122/155/87
f 14/14/88 16/16/88 80/113/88 78/111/88
f 32/32/89 34/34/89 98/131/89 96/129/89
f 50/50/90 52/52/90 116/149/90 114/147/90
f 6/6/91 8/8/91 72/105/91 70/103/91
f 24/24/92 26/26/92 90/123/92 88/121/92
f 42/42/93 44/44/93 108/141/93 106/139/93
f 60/60/94 62/62/94 126/159/94 124/157/94
f 16/16/95 18/18/95 82/115/95 80/113/95
f 34/34/96 36/36/96 100/133/96 98/131/96
f 52/52/97 54/54/97 118/151/97 116/149/97
f 8/8/98 10/10/98 74/107/98 72/105/98
